<svg width="100" height="100" viewBox="0 0 100 100" fill="none" xmlns="http://www.w3.org/2000/svg">
<g clip-path="url(#clip0)">
<path d="M55.6612 54H44.5484C44.5484 68.1974 41.8225 81.3804 37 90H63C58.387 81.3804 55.6612 68.1974 55.6612 54Z" fill="#FFA817"/>
<path d="M63.1134 95.6547H37.3273C35.4557 95.6547 34 94.1989 34 92.3273C34 90.4557 35.4557 89 37.3273 89H63.1136C64.9852 89 66.4409 90.4557 66.4409 92.3273C66.4409 94.1989 64.985 95.6547 63.1134 95.6547Z" fill="#FFD400"/>
<path d="M77.5533 54.6237H75.0579C71.5227 54.6237 68.1954 52.3363 67.1557 49.0089C65.6999 45.0578 67.5715 40.4829 71.5227 38.6113C84.8318 32.1647 91.2782 24.0545 94.6056 9.49789C95.0214 8.04215 94.1897 6.37859 92.734 5.75473C91.9021 5.33888 90.8624 5.33888 90.0305 5.54671C89.1986 5.96255 88.3669 6.58641 87.9509 7.41829C85.8713 11.7853 81.5043 14.6966 76.7214 14.6966H70.067C68.6112 14.6966 67.3635 13.4489 67.3635 11.9931C67.3635 10.5374 68.6112 9.28968 70.067 9.28968H76.7214C79.4249 9.28968 82.1281 7.62611 83.168 5.13067C84.2077 3.05107 85.8715 1.38751 88.1589 0.555627C90.4463 -0.276252 92.734 -0.0682338 95.0214 0.971469C98.7646 2.63503 100.636 6.79423 99.8043 10.5374C96.2691 26.5498 88.7828 36.1157 74.018 43.1862C72.5622 43.81 71.7305 45.6816 72.3544 47.1374C72.7702 48.3851 74.0179 49.217 75.2657 49.217H77.7611C79.2169 49.217 80.4646 50.4647 80.4646 51.9204C80.4646 53.376 79.0088 54.6237 77.5533 54.6237Z" fill="#FFA817"/>
<path d="M24.7335 54.6245H22.2381C20.7823 54.6245 19.5346 53.3768 19.5346 51.921C19.5346 50.4653 20.7823 49.2176 22.2381 49.2176H24.7335C26.1893 49.2176 27.229 48.3857 27.6448 47.138C28.2687 45.6822 27.4368 44.0187 25.9812 43.1868C11.2166 36.1165 3.73027 26.5508 0.195125 10.5382C-0.636754 6.58722 1.23483 2.63604 4.97799 0.972476C7.05759 -0.0672267 9.55304 -0.275245 11.8405 0.556634C13.9201 1.38851 15.5836 3.05208 16.6233 5.3395C17.871 7.83494 20.3665 9.49851 23.07 9.49851H29.7244C31.1801 9.49851 32.4279 10.7462 32.4279 12.202C32.4279 13.6577 31.1801 14.6974 29.7244 14.6974H23.07C18.2871 14.6974 13.9201 11.7861 11.8405 7.4191C11.4246 6.58722 10.8008 5.96336 9.76086 5.54752C8.92898 5.13168 8.0973 5.3395 7.26542 5.75554C5.80968 6.3794 4.97799 8.04296 5.18582 9.4987C8.51314 24.0555 14.9596 32.1657 28.2687 38.6121C32.2198 40.4837 34.0914 44.8507 32.6357 49.0098C31.3882 52.3369 28.2689 54.6245 24.7335 54.6245Z" fill="#FFA817"/>
<path d="M76.93 0.139771C78.1778 31.9567 61.7494 60.0304 49.896 60.0304C38.0427 60.0304 21.6143 31.9567 22.862 0.139771H76.93Z" fill="#FFD400"/>
</g>
<defs>
<clipPath id="clip0">
<rect width="100" height="100" fill="white"/>
</clipPath>
</defs>
</svg>
