<svg width="102" height="114" viewBox="0 0 102 114" fill="none" xmlns="http://www.w3.org/2000/svg">
<path d="M79.2714 32.564L89.218 18.0935L66.5682 12.0246L43.9189 5.95572L45.2973 23.4607L79.2714 32.564Z" fill="#8DCAFC"/>
<path d="M62.2843 28.0123L100.921 38.365L49.4326 75.9755L62.2843 28.0123Z" fill="#8DCAFC"/>
<path d="M66.5674 12.0245L62.2835 28.0123L23.6465 17.6595L43.9181 5.95572L66.5674 12.0245Z" fill="#64B9FC"/>
<path d="M62.2835 28.0123L23.6465 17.6595L49.4318 75.9755L62.2835 28.0123Z" fill="#64B9FC"/>
<path d="M66.5671 12.0245L62.2832 28.0123L100.921 38.365L89.2167 18.0934L66.5671 12.0245Z" fill="#64B9FC"/>
<path d="M66.5679 12.0246L45.3008 23.4617L62.284 28.0123L79.2672 32.563L66.5679 12.0246Z" fill="#8DCAFC"/>
<path d="M45.2969 23.4606L49.4322 75.9754L79.2709 32.5639L45.2969 23.4606Z" fill="#55B0F9"/>
<path d="M89.2167 18.0934L79.2705 32.5639L100.921 38.365L89.2167 18.0934Z" fill="#B5DBFD"/>
<path d="M43.9181 5.95572L45.2965 23.4606L23.6465 17.6595L43.9181 5.95572Z" fill="#55B0F9"/>
<path d="M90.2712 26.3377C88.1122 25.1972 86.7861 22.9019 86.8781 20.4617C86.8851 20.2778 86.6562 20.2164 86.5702 20.3791C85.4302 22.5381 83.1342 23.8634 80.6944 23.7717C80.5105 23.7648 80.4491 23.994 80.6118 24.0799C82.7712 25.2203 84.0961 27.5155 84.0041 29.9558C83.9971 30.1396 84.2261 30.2011 84.3121 30.0384C85.4531 27.879 87.7482 26.554 90.1882 26.6459C90.3722 26.6529 90.4332 26.4236 90.2712 26.3377Z" fill="white"/>
<path d="M81.7171 34.4094C80.0609 33.4718 79.0355 31.6956 79.0513 29.7929C79.0529 29.6017 78.8216 29.5398 78.7274 29.7061C77.7899 31.3619 76.0137 32.3872 74.1109 32.3714C73.9198 32.3699 73.8578 32.6011 74.0241 32.6953C75.6799 33.6328 76.7053 35.4089 76.6895 37.3118C76.6879 37.5029 76.9191 37.5649 77.0134 37.3986C77.9509 35.7428 79.7271 34.7174 81.6301 34.7333C81.8211 34.7348 81.8831 34.5034 81.7171 34.4094Z" fill="white"/>
<path d="M17.2338 22.3501C15.7672 26.4007 15.4898 30.7861 16.4341 34.9891C17.3787 39.1922 19.5054 43.0374 22.5636 46.0714L36.7043 60.0537C46.0102 69.2681 52.8317 80.6883 56.5333 93.2501C57.2142 95.572 57.7845 97.918 58.2443 100.29L59.1071 97.92L61.8217 98.908C61.367 96.648 60.8128 94.4072 60.1589 92.1843C56.2768 79.0088 49.1221 67.0305 39.3616 57.3661L25.221 43.3836C22.6757 40.8589 20.9057 37.6588 20.1198 34.161C19.3338 30.6631 19.5647 27.0135 20.7853 23.6427L17.2338 22.3501Z" fill="#C2D5D7"/>
<path d="M10.2808 18.8942C10.7312 20.3723 11.4799 21.7423 12.4805 22.9199L17.0719 28.3239L20.4554 24.0278C21.6749 22.4798 22.4698 20.6407 22.7616 18.6919C23.0536 16.7431 22.8322 14.7518 22.1198 12.9146L17.1972 0.215942L11.4372 9.68751C10.6058 11.0537 10.0729 12.5803 9.87357 14.167C9.67417 15.7538 9.81297 17.3648 10.2808 18.8942Z" fill="#EFF5F6"/>
<path d="M10.2803 18.8939C10.7307 20.372 11.4793 21.742 12.48 22.9196L17.0714 28.3236L20.4549 24.0275C21.4258 22.7961 22.1304 21.3765 22.524 19.8587C22.9177 18.3408 22.9918 16.7577 22.7419 15.2096L20.9572 16.7219C18.9484 18.4286 17.4948 20.6959 16.7822 23.2337C15.6382 21.9267 14.2481 20.8578 12.691 20.0881L10.2803 18.8939Z" fill="#EFF5F6"/>
<path d="M18.3295 28.7346L19.811 37.3654L22.7297 34.6019L25.4261 32.049C27.367 30.2128 28.5957 27.7492 28.895 25.0943C28.948 24.6334 28.9725 24.1696 28.968 23.7056L28.8594 12.5052L22.1767 18.1646C20.6712 19.4394 19.5244 21.0851 18.8497 22.9388C18.175 24.7925 17.9957 26.7903 18.3295 28.7346Z" fill="#A9D3D8"/>
<path d="M24.9767 45.2779L20.9547 41.0299C19.5378 39.5334 17.7398 38.4514 15.7541 37.9002C13.7682 37.349 11.6698 37.3494 9.68431 37.9014L0.599609 40.4273L10.041 46.4488C11.649 47.4744 13.4901 48.0778 15.3934 48.2031C17.2967 48.3282 19.2008 47.9712 20.9293 47.1652L24.9767 45.2779Z" fill="#A9D3D8"/>
<path d="M19.8122 37.3656L17.8376 29.2592C17.4461 27.6516 16.7073 26.1493 15.6733 24.8574C14.6394 23.5657 13.3352 22.5158 11.8523 21.7818L1.25195 16.5334L2.71695 25.0639C3.05525 27.0339 3.90835 28.8795 5.18985 30.4135C6.47105 31.9475 8.13525 33.1155 10.0136 33.7992L19.8122 37.3656Z" fill="#CBE5E7"/>
<path d="M22.7314 34.6022L25.4278 32.0493C27.3687 30.213 28.5974 27.7495 28.8967 25.0945L28.0044 25.7502C26.5757 26.7955 25.3724 28.1182 24.4663 29.6391C23.5603 31.1599 22.9702 32.848 22.7314 34.6022Z" fill="#A9D3D8"/>
<path d="M35.1537 22.8398L29.1223 27.2721C27.6026 28.3889 26.3854 29.867 25.581 31.5728C24.7766 33.2788 24.4105 35.1583 24.5157 37.0412L24.9761 45.2781L31.0076 40.8458C32.5274 39.7291 33.7444 38.2509 34.5489 36.5451C35.3531 34.8392 35.7194 32.9596 35.6141 31.0767L35.1537 22.8398Z" fill="#EFF5F6"/>
<path d="M33.5563 54.4338L31.8886 47.587C31.4154 45.6449 31.4642 43.6123 32.0297 41.6952C32.5954 39.7782 33.6577 38.0446 35.1091 36.6704L39.5364 32.4787L41.2041 39.3255C41.6772 41.2675 41.6283 43.3001 41.0628 45.2172C40.4973 47.1343 39.4349 48.8679 37.9834 50.2421L33.5563 54.4338Z" fill="#A9D3D8"/>
<path d="M7.88574 53.1353L17.6257 57.9574C19.3396 58.8058 21.2401 59.207 23.1507 59.1236C25.0612 59.0401 26.9196 58.4749 28.5529 57.4802L32.0637 55.342L33.5554 54.4344L29.2219 50.9945C27.6883 49.7775 25.8657 48.9785 23.9314 48.6754C21.9973 48.3724 20.0176 48.5754 18.1852 49.265L7.88574 53.1353Z" fill="#CBE5E7"/>
<path d="M39.5024 60.6197L38.7713 56.8463C38.3632 54.7389 38.5616 52.5588 39.3436 50.5597C40.1254 48.5606 41.4589 46.8245 43.1888 45.5534L48.3876 41.733L48.7623 48.4377C48.8888 50.7003 48.3343 52.9486 47.1706 54.893C46.0068 56.8374 44.2872 58.3885 42.2335 59.3462L39.5024 60.6197Z" fill="#EFF5F6"/>
<path d="M20.7734 58.9757C23.4628 59.4301 26.2258 58.8989 28.5549 57.4794L32.0656 55.3411C30.0304 55.0236 27.949 55.1871 25.9881 55.8181C24.0273 56.4492 22.2413 57.5307 20.7734 58.9757Z" fill="#CBE5E7"/>
<path d="M17.8672 64.8114L24.393 67.1866C26.5027 67.9562 28.7937 68.0811 30.9745 67.5455C33.1554 67.01 35.1278 65.838 36.6411 64.1787C36.8189 63.9871 36.9894 63.7878 37.1528 63.5807L39.5024 60.6201L35.3825 58.4168C33.1834 57.2409 30.6579 56.8228 28.1972 57.2273C25.7364 57.6318 23.4778 58.8363 21.7708 60.6542L17.8672 64.8114Z" fill="#A9D3D8"/>
<path d="M46.442 69.1787L45.8619 67.2661C45.2199 65.1487 45.2114 62.8896 45.8374 60.7674C46.4636 58.6452 47.6969 56.7525 49.3856 55.3227L55.3272 50.292L55.4013 57.9418C55.4252 60.3931 54.6538 62.7861 53.203 64.7621C51.7522 66.7381 49.7 68.1907 47.354 68.902L46.442 69.1787Z" fill="#A9D3D8"/>
<path d="M26.6084 67.749C28.445 68.021 30.3203 67.8376 32.0697 67.215C33.8189 66.5925 35.3885 65.5498 36.6404 64.1786C33.5512 63.9882 30.4934 64.8896 28.0014 66.7252L26.6084 67.749Z" fill="#A9D3D8"/>
<path d="M46.4422 69.1785L39.7141 66.7297C37.9601 66.0913 36.0757 65.8958 34.228 66.1606C32.3803 66.4255 30.6264 67.1422 29.1222 68.2476L23.0312 72.7235L31.3335 75.7453C33.5698 76.5592 36.0053 76.6488 38.2953 76.0016C40.5854 75.3544 42.6136 74.0031 44.0928 72.139L46.4422 69.1785Z" fill="#CBE5E7"/>
<path d="M51.6063 77.091L51.1943 74.9644C50.7133 72.482 51.0761 69.91 52.2248 67.6574C53.3734 65.4047 55.2422 63.6008 57.5338 62.5322L64.0429 59.4969L63.2966 66.64C63.044 69.0574 62.0213 71.3298 60.3792 73.1218C58.7371 74.9138 56.5626 76.1308 54.1762 76.5931L51.6063 77.091Z" fill="#EFF5F6"/>
<path d="M51.6064 77.091L47.9773 75.7702C45.8922 75.0112 43.6303 74.8809 41.4717 75.3951C39.3133 75.9094 37.353 77.0457 35.8341 78.6632L31.1006 83.7043L37.3195 85.0114C39.38 85.4444 41.5206 85.2953 43.5011 84.5803C45.4817 83.8655 47.224 82.6132 48.533 80.9638L51.6064 77.091Z" fill="#A9D3D8"/>
<path d="M57.8994 87.4256L58.0143 83.2143C58.0767 80.9345 58.825 78.7266 60.1617 76.8788C61.4982 75.0309 63.361 73.6293 65.5067 72.8565L72.1117 70.4778L70.3626 78.1299C69.8731 80.2719 68.7715 82.2257 67.192 83.7534C65.6125 85.281 63.6232 86.3167 61.4659 86.7346L57.8994 87.4256Z" fill="#A9D3D8"/>
<path d="M57.9004 87.4255L53.1495 85.6963C50.9134 84.8824 48.4779 84.7928 46.1879 85.44C43.8979 86.0872 41.8697 87.4386 40.3904 89.3026L38.041 92.263L44.9264 93.8368C47.2464 94.367 49.6743 94.154 51.8662 93.2277C54.0583 92.3014 55.9032 90.7089 57.1398 88.6758L57.9004 87.4255Z" fill="#A9D3D8"/>
<path d="M87 86H32C27.5817 86 24 89.5817 24 94V106C24 110.418 27.5817 114 32 114H87C91.4183 114 95 110.418 95 106V94C95 89.5817 91.4183 86 87 86Z" fill="#64B9FC"/>
<path d="M79 86H24C19.5817 86 16 89.5817 16 94V106C16 110.418 19.5817 114 24 114H79C83.4183 114 87 110.418 87 106V94C87 89.5817 83.4183 86 79 86Z" fill="#8DCAFC"/>
<path d="M68 96H58V105H68V96Z" fill="#CBE5E7"/>
<path d="M62 96H42V105H62V96Z" fill="#EFF5F6"/>
<path d="M99 105H12C10.3431 105 9 106.343 9 108V111C9 112.657 10.3431 114 12 114H99C100.657 114 102 112.657 102 111V108C102 106.343 100.657 105 99 105Z" fill="#A9D3D8"/>
<path d="M90.7941 105H12C10.3431 105 9 106.343 9 108V111C9 112.657 10.3431 114 12 114H90.7941C92.451 114 93.7941 112.657 93.7941 111V108C93.7941 106.343 92.451 105 90.7941 105Z" fill="#CBE5E7"/>
</svg>
